<svg width="36" height="36" viewBox="0 0 36 36" fill="none" xmlns="http://www.w3.org/2000/svg">
<rect x="2" y="2" width="32" height="32" rx="16" fill="#F4EBFF"/>
<rect x="2" y="2" width="32" height="32" rx="16" stroke="#F9F5FF" stroke-width="4"/>
<path d="M23.334 14H18.0007L16.6673 12.6666H12.6673C11.934 12.6666 11.3407 13.2666 11.3407 14L11.334 22C11.334 22.7333 11.934 23.3333 12.6673 23.3333H23.8473C24.3007 23.3333 24.6673 22.96 24.6673 22.5133V15.3333C24.6673 14.6 24.0673 14 23.334 14ZM23.334 22H12.6673V14H16.114L17.4473 15.3333H23.334V22ZM22.0007 18H14.0007V16.6666H22.0007V18ZM19.334 20.6666H14.0007V19.3333H19.334V20.6666Z" fill="#1D4ED8"/>
</svg>
